<?xml version="1.0" encoding="utf-8"?>
<!-- Generator: Adobe Illustrator 28.0.0, SVG Export Plug-In . SVG Version: 6.00 Build 0)  -->
<svg version="1.1" id="Calque_10" xmlns="http://www.w3.org/2000/svg" xmlns:xlink="http://www.w3.org/1999/xlink" x="0px" y="0px"
	 viewBox="0 0 491.5 510.3" style="enable-background:new 0 0 491.5 510.3;" xml:space="preserve">
<style type="text/css">
	.st0{fill:#C35825;}
	.st1{fill:#FFFFFF;}
</style>
<circle class="st0" cx="245.7" cy="255.2" r="235.5"/>
<g>
	<path class="st1" d="M466.2,216.6c-10.1-59-42.6-110.5-91.4-145C326,37,266.6,23.5,207.6,33.6S97.1,76.2,62.6,125
		c-34.6,48.8-48,108.2-37.9,167.2s42.6,110.5,91.4,145c38.3,27.1,83,41.2,128.9,41.2c12.7,0,25.5-1.1,38.3-3.3
		c59-10.1,110.5-42.6,145-91.4C462.9,335,476.3,275.6,466.2,216.6z M458.3,218c4.4,25.8,4.1,51.7-0.6,76.6L369,278.8
		c2.9-14.6,3.2-30,0.6-45.6c-8.2-48.1-42.8-85.1-86.4-98.9L305.8,47c22.8,6.6,44.5,17.1,64.4,31.2
		C417.3,111.4,448.6,161.1,458.3,218z M361.7,234.5c11,64.1-32.3,125.2-96.4,136.2s-125.2-32.3-136.2-96.4s32.3-125.2,96.4-136.2
		c6.7-1.1,13.4-1.7,20-1.7C301.9,136.4,351.9,177.1,361.7,234.5z M69.1,129.7c33.3-47.1,83-78.4,139.9-88.1
		c12.3-2.1,24.7-3.2,36.9-3.2c17.7,0,35.2,2.2,52.2,6.4L275.5,132c-16.3-4-33.7-4.8-51.3-1.8c-68.5,11.7-114.6,77-102.9,145.5
		c0.2,1.3,0.5,2.6,0.7,3.8l-88.7,15.2c-0.2-1.3-0.5-2.5-0.7-3.8C22.8,234,35.8,176.8,69.1,129.7z M421.8,379.2
		c-33.3,47.1-83,78.4-139.9,88.1c-12.3,2.1-24.7,3.2-36.9,3.2c-44.3,0-87.4-13.6-124.3-39.7c-43.8-31-74-76.2-85.8-128.2l88.9-15.2
		c14.9,55.1,65.2,93.1,121.6,93.1c7,0,14.2-0.6,21.3-1.8c50.1-8.6,88.3-45.8,100.5-92.1l88.9,15.9
		C449.9,329.7,438.4,355.7,421.8,379.2z"/>
	<g>
		<g>
			<g>
				<path class="st1" d="M101,253l-39.7-1.3l-0.5,14.8l-11.7-0.4l1.4-43.5l11.7,0.4l-0.5,14.8l39.7,1.3L101,253z"/>
				<path class="st1" d="M103.4,219.9L55,202.7L67.3,168l10.7,3.8l-7.8,22l7.7,2.7l7.3-20.6l10.7,3.8l-7.3,20.6l8.6,3l8.3-23.4
					l10.3,4.9L103.4,219.9z"/>
				<path class="st1" d="M137.9,154.8l-34.6-3.7l23.1,18.2l-8.1,10.3l-40.4-31.8l7.5-9.5L120,142l-23.1-18.2l8.1-10.3l40.4,31.8
					L137.9,154.8z"/>
				<path class="st1" d="M177.8,123.9l-31.2-15.4l15.4,25.1l-11.2,6.9L124,96.6l10.3-6.3l31.2,15.4L150,80.6l11.2-6.9l26.9,43.8
					L177.8,123.9z"/>
				<path class="st1" d="M196.4,115.9l-14.7-49.2l13.2-4l14.7,49.2L196.4,115.9z"/>
				<path class="st1" d="M231.6,87.5c-5.9-0.8-10.3-2.4-13-4.7c-2.8-2.4-4.3-5.7-4.5-10.1c-0.3-5.2,1.3-9.2,4.7-12.2s8.5-4.6,15.1-5
					c6.4-0.3,11.5,0.8,15.4,3.3c3.8,2.5,6.1,6.3,6.9,11.3l-13.3,2c-0.6-2.1-1.5-3.6-2.9-4.5c-1.3-0.9-3.2-1.3-5.6-1.2
					c-2.2,0.1-3.9,0.6-5,1.4c-1.2,0.8-1.7,1.9-1.6,3.4c0.1,1.2,0.6,2.1,1.5,2.8c0.9,0.7,2.4,1.1,4.5,1.4l7,1
					c5.8,0.8,10.1,2.4,12.9,4.9c2.8,2.4,4.4,5.8,4.6,10.2c0.3,5.4-1.4,9.7-5,12.8c-3.6,3.1-8.9,4.8-15.8,5.2
					c-7,0.4-12.5-0.9-16.4-3.7c-3.9-2.9-6.3-7.3-7-13.3l13.7-0.7c0.4,2.4,1.4,4.2,3,5.3c1.6,1.1,3.8,1.5,6.6,1.4
					c2.4-0.1,4.2-0.6,5.4-1.5s1.8-2.2,1.7-3.8c-0.1-1.3-0.6-2.4-1.6-3.1s-2.4-1.2-4.4-1.4L231.6,87.5z"/>
			</g>
		</g>
		<g>
			<g>
				<path class="st1" d="M93.1,353.1l-4.1-6.9l9.4-5.6l10.5,17.6l-19.6,11.7c-3.4-1.3-6.6-3.2-9.6-5.8c-3-2.6-5.5-5.6-7.5-9.1
					c-4-6.8-5.2-13.1-3.5-19.1s6.1-11.1,13.3-15.4c4.8-2.9,9.5-4.5,13.9-4.8s8.5,0.5,12.1,2.6s6.7,5.3,9.3,9.6
					c3,5.1,4.2,9.9,3.7,14.5c-0.6,4.6-2.9,8.6-6.9,12l-8-10.9c1.6-1.5,2.5-3.1,2.7-4.7s-0.2-3.3-1.3-5.2c-1.8-3-4.1-4.6-7.1-4.8
					c-3-0.2-6.6,1-10.9,3.6c-4.5,2.7-7.3,5.4-8.4,8.3c-1.1,2.8-0.6,6,1.5,9.6c1.5,2.5,3.4,4.5,5.6,5.8L93.1,353.1z"/>
				<path class="st1" d="M115.9,405.9c-4-3.3-6.7-6.9-8.2-10.9s-1.7-8.1-0.7-12.3c1-4.2,3.2-8.4,6.7-12.6
					c5.3-6.4,11.2-10.1,17.5-10.9c6.4-0.8,12.6,1.3,18.6,6.2c4,3.3,6.7,6.9,8.2,10.9s1.7,8.1,0.7,12.3c-1,4.2-3.2,8.4-6.7,12.6
					c-5.3,6.4-11.2,10.1-17.5,10.9C128.1,412.9,121.9,410.8,115.9,405.9z M123.4,397c2.7,2.3,5.6,3,8.6,2.3c3-0.8,6-3,9.1-6.8
					c6.3-7.6,6.7-13.6,1.2-18.2c-2.7-2.3-5.6-3-8.6-2.3c-3,0.8-6,3-9.1,6.8s-4.8,7.2-4.9,10.2C119.4,392.1,120.7,394.8,123.4,397z"
					/>
				<path class="st1" d="M181.7,441l-1.5-19.1l-6.8-2.6l-6.1,16.2l-12-4.6L173,384l18.5,7c6.1,2.3,10.3,5.4,12.5,9.1s2.4,8,0.6,12.9
					c-1.2,3-2.8,5.4-4.8,7.3c-2,1.8-4.5,3-7.2,3.4l2.5,22.4L181.7,441z M183.2,411.9c2.4,0.9,4.3,1.1,5.8,0.6
					c1.4-0.5,2.5-1.7,3.3-3.7c0.7-1.9,0.6-3.5-0.2-4.9c-0.9-1.4-2.5-2.5-5-3.4l-5.8-2.2l-4.3,11.2L183.2,411.9z"/>
				<path class="st1" d="M212.9,449.3l3.1-50.1l21,1.3c12,0.7,17.8,5.4,17.2,14.1c-0.2,2.5-0.8,4.5-1.9,6.2c-1.1,1.6-2.8,3-4.9,4
					c2.5,1.4,4.3,3.1,5.4,5.1c1.1,2,1.6,4.4,1.4,7.1c-0.3,4.8-2.2,8.3-5.6,10.7c-3.5,2.3-8.3,3.3-14.4,2.9L212.9,449.3z
					 M233.6,440.4c2.6,0.2,4.5-0.2,5.7-1s1.9-2.2,2-4.1s-0.4-3.3-1.4-4.2c-1-0.9-2.8-1.4-5.2-1.6L227,429l-0.7,10.9L233.6,440.4z
					 M234.9,419.7c2.2,0.1,3.7-0.1,4.7-0.8c1-0.6,1.5-1.8,1.6-3.4s-0.3-2.8-1.3-3.6c-1-0.8-2.7-1.2-5.1-1.4l-6.6-0.4l-0.6,9.1
					L234.9,419.7z"/>
				<path class="st1" d="M272.5,449.6l-11.4-48.9l35-8.1l2.5,10.8l-22.2,5.2l1.8,7.8l20.8-4.8l2.5,10.8l-20.8,4.8l2,8.6l23.6-5.5
					l1.4,11.1L272.5,449.6z"/>
				<path class="st1" d="M325.8,434.1l-24.1-44l11.8-6.5l18.6,34l19.5-10.6l4.4,10.6L325.8,434.1z"/>
				<path class="st1" d="M371.3,406.1L336.4,370l9.7-9.4l26.9,27.9l16-15.4l7.1,9.1L371.3,406.1z"/>
				<path class="st1" d="M425.2,336.4l-9.8-2l-8.1,14.9l7.1,7.1l-6.5,11.9L372.1,329l7.3-13.5l52.4,8.6L425.2,336.4z M386.7,328.4
					l12.7,12.8l4.9-9.1L386.7,328.4z"/>
			</g>
		</g>
		<g>
			<g>
				<path class="st1" d="M350.5,126.5c-3.6,5.1-8.1,8.1-13.4,9s-10.8-0.5-16.6-4c-6.6-4.1-10.5-9.3-11.7-15.5s0.5-13,4.9-20.1
					c4.5-7.3,9.9-11.8,16.2-13.5c6.3-1.8,12.7-0.6,19.4,3.5c5.2,3.2,8.6,7.1,10.1,11.6s1.1,9.6-1.2,15.2l-12.5-5.9
					c1-2.7,1.2-4.9,0.8-6.6c-0.5-1.7-1.7-3.2-3.7-4.5c-5.6-3.5-11-1-16.3,7.6c-5.4,8.6-5.2,14.7,0.5,18.2c2.1,1.3,4.2,1.8,6.1,1.3
					s3.8-1.7,5.6-3.8L350.5,126.5z"/>
				<path class="st1" d="M343.3,146.5l39.5-32.9l8.8,10.6l-30.5,25.4l14.6,17.5l-9.8,6.6L343.3,146.5z"/>
				<path class="st1" d="M427.3,185.1l5.2,12.8l-27.9,11.3c-14,5.7-23.7,1.8-29.2-11.8c-5.4-13.3-1.2-22.8,12.8-28.5l27.9-11.3
					l5.2,12.8L393,181.9c-3.3,1.3-5.5,2.9-6.5,4.7s-1,3.9,0,6.5s2.6,4.1,4.5,4.7c2,0.5,4.6,0.1,7.9-1.2L427.3,185.1z"/>
				<path class="st1" d="M386,224l51.3-2.7l1.1,21.5c0.7,12.3-3.5,18.7-12.3,19.2c-2.5,0.1-4.7-0.3-6.5-1.2
					c-1.8-0.9-3.3-2.5-4.6-4.6c-1.2,2.7-2.7,4.7-4.6,6.1c-1.9,1.3-4.3,2.1-7.1,2.2c-4.9,0.3-8.7-1.2-11.5-4.5
					c-2.8-3.2-4.4-8-4.7-14.4L386,224z M397.4,244c0.1,2.6,0.7,4.5,1.7,5.7c1,1.1,2.5,1.7,4.4,1.6c1.9-0.1,3.3-0.7,4.1-1.9
					c0.8-1.2,1.1-3,1-5.5l-0.4-8l-11.2,0.6L397.4,244z M418.7,242.8c0.1,2.2,0.6,3.8,1.3,4.7c0.8,0.9,2,1.3,3.7,1.2s2.8-0.7,3.5-1.8
					s0.9-2.9,0.8-5.4l-0.4-6.8l-9.3,0.5L418.7,242.8z"/>
			</g>
		</g>
	</g>
	<path class="st1" d="M324,249.2c-38-2.8-68.9-33.3-72.1-71.3C289.9,180.6,320.7,211.2,324,249.2z"/>
	<path class="st1" d="M251.5,333.8c-0.8-46-37.2-84.2-83.1-87.3c4.5-37.4,34.8-66.2,72.4-68.7c3.3,44.3,39,79.7,83.3,82.4
		C321.9,299.6,290.9,331.1,251.5,333.8z"/>
	<path class="st1" d="M167.9,257.5c40,2.8,71.8,36.2,72.6,76.3C200.5,331,168.7,297.6,167.9,257.5z"/>
</g>
</svg>
