<svg xmlns="http://www.w3.org/2000/svg" viewBox="0 0 128 160" x="0px" y="0px"><g><path d="M80.314,100.93a2.6,2.6,0,0,0,.226.24,3.994,3.994,0,0,1,1.411-.889.92.92,0,0,1,.466-.057c.191-.352.4-.719.607-1.107a3.837,3.837,0,0,1-.748-1.5,7.958,7.958,0,0,0-1.411-3.084,9.328,9.328,0,0,0-.9,5.716,1.221,1.221,0,0,1,.134.268.6.6,0,0,0,.035.091.819.819,0,0,0,.071.142C80.2,100.761,80.314,100.916,80.314,100.93ZM58.666,112.375c-.014,0-.049-.049-.127-.113h-.007a.055.055,0,0,0-.028-.028c0,.014.014.021.028.028h-.021a.37.37,0,0,0-.127,0c-.1,0-.233.014-.36.028-.254.029-.529.085-.812.142-.571.12-1.164.275-1.792.43-.162.042-.324.078-.487.12-.225.049-.345.064-.522.092l-1.009.169c-.684.113-1.4.2-2.117.3-.882.113-1.778.191-2.611.24-.409.007-.818.022-1.22.029-.2.007-.4.007-.607.014s-.381-.007-.572-.007a24.376,24.376,0,0,1-4.106-.247,6.38,6.38,0,0,1-2.653-1.016c-.565-.445-.7-.769-.664-.819.057-.085.374.177.9.416a7.685,7.685,0,0,0,2.527.579,34.028,34.028,0,0,0,3.979-.007l.586-.021c.19-.007.381-.021.571-.028.4-.022.8-.036,1.221-.057.819-.07,1.63-.148,2.5-.254.713-.106,1.4-.183,2.089-.289.338-.05.677-.1,1.009-.141.148-.029.36-.05.458-.071.156-.035.311-.07.466-.1.635-.141,1.256-.268,1.863-.367.3-.049.6-.091.91-.112h.275c-.254-.551-.5-1.108-.79-1.652a8.971,8.971,0,0,1-5.348-1.608c-4.883-.05-9.145-2.675-13.259-4.834-4.826-2.533-9.568-5.207-14.3-7.917a27.41,27.41,0,0,1-6.95-5c.063.36.127.762.183,1.207.064.466.141.974.219,1.524.127.536.261,1.185.416,1.743.41,1.206.776,2.554,1.27,3.944.974,2.78,1.976,5.229,2.71,7.028.769,1.793,1.178,2.936,1.03,3.013s-.818-.938-1.778-2.639a49.574,49.574,0,0,1-3.091-7.014c-.494-1.411-.846-2.8-1.206-4.05-.155-.691-.226-1.256-.318-1.835-.035-.592-.063-1.143-.091-1.651-.008-.882-.029-1.594-.036-2.131a8.841,8.841,0,0,1-.981-1.672,6.625,6.625,0,0,1-.508-1.877,7.576,7.576,0,0,0-.282,2.152c.035,2.54.2,5.194-.762,7.614a40.07,40.07,0,0,0-2.851,9.949,31.187,31.187,0,0,1-2.067,7.141c3.577,1.581,6.724,4.036,10.5,5.243a19.378,19.378,0,0,0,6.477.825c-.113-.049-.226-.1-.339-.155l-.268-.12-.134-.063-.035-.015-.064-.035-.014-.007-.07-.042a11.765,11.765,0,0,1-2.054-1.609,22.159,22.159,0,0,1-4.734-7.458c-.819-2.11-.974-3.521-.826-3.55.177-.042.607,1.256,1.595,3.211a27.624,27.624,0,0,0,4.8,6.943,11.781,11.781,0,0,0,1.821,1.461l.063.042h.007l.007.007.134.064.268.134c.177.084.353.169.522.254.339.12.657.2.967.3a15.286,15.286,0,0,0,2,.346c1.757-.212,3.514-.5,5.264-.741,4.46-.614,8.813-.84,13.153-2.173,3.408-1.052,6.767-2.237,10.2-3.2C58.666,112.382,58.666,112.382,58.666,112.375ZM47.32,26.791a.022.022,0,0,1,.007.014l.028.084c.035.106.063.219.106.318s.113.183.169.282a2.79,2.79,0,0,0,1.023.819,6.856,6.856,0,0,0,1.3.416,5.163,5.163,0,0,0,1.143.148.764.764,0,0,0,.635-.275A1.9,1.9,0,0,0,52,27.962c.106-.395.162-.663.247-.663s.176.225.212.705c.084,1.99.232,3.472,1.707,5.01a11.735,11.735,0,0,0,4.6,2.745,36.849,36.849,0,0,0,5.871,1.969c3.753.6,3.556-3.38,4.071-5.638.621-2.738,1.616-5.2,1.369-8.03a3.2,3.2,0,0,1-1.143-.233.957.957,0,0,0-.021.254,3.472,3.472,0,0,0,.247,1.016,9.691,9.691,0,0,1,.416,1.383,2.192,2.192,0,0,1-.028.974,1.648,1.648,0,0,1-.664.931l-.021.014a.553.553,0,0,1-.077.05.247.247,0,0,0-.043.021l-.077.035a1.2,1.2,0,0,1-.191.064c-.155.042-.339.092-.466.113-.232.028-.465.063-.691.077a11.233,11.233,0,0,1-1.284.043,6.348,6.348,0,0,1-.671-.057c-.127-.028-.183-.049-.282-.07a1.592,1.592,0,0,1-.395-.191,1.208,1.208,0,0,1-.494-.621,1.557,1.557,0,0,1-.085-.621,3.643,3.643,0,0,1,.473-1.453c.162-.3.289-.452.367-.431s.1.226.071.565a7.251,7.251,0,0,0-.064,1.3.817.817,0,0,0,.085.3.336.336,0,0,0,.155.127c.035.022.071.007.092.029a1.961,1.961,0,0,0,.254.035c.12.007.3,0,.487-.007.367-.021.769-.05,1.178-.1.205-.021.4-.056.607-.092a1.147,1.147,0,0,1,.19-.028.254.254,0,0,0,.127-.042l.078-.035c.1-.1.183-.149.2-.269a1.059,1.059,0,0,0,.014-.479,10.7,10.7,0,0,0-.3-1.256,4.164,4.164,0,0,1-.155-1.355,1.578,1.578,0,0,1,.17-.6c-1.1-.614-.325-.409-1.75.162A9.622,9.622,0,0,1,61.954,24c-1.877-.134-3.443-.635-3.775-2.3-2.427-.014-4.854.049-7.282.071.057.077.106.148.148.218a1.2,1.2,0,0,1,.184.353,2.855,2.855,0,0,1,.169.311c.2.43.2.7.141.726-.084.036-.233-.169-.522-.472a2.367,2.367,0,0,0-1.341-.812c-.077-.028-.134.007-.19.007-.078.014-.1-.028-.226.028-.1.036-.2.064-.31.106l-.191.113a2.674,2.674,0,0,0-.84.882,5.41,5.41,0,0,0-.677,2.922,3.523,3.523,0,0,0,.035.373l.036.219Zm67.005,29.283c6.386,6.153,7.346,18.191,4.029,26.058-2.025,4.791-5.334,9.787-10,12.4a33.985,33.985,0,0,1-7.056,2.815,1.012,1.012,0,0,1-.445.142c-2.131.613-4.3,1.143-6.407,1.714.028,2.463-1.037,3.465-3.246,4.326-1.905.741-3.577,2.829-5.673,3.027-1.948,3.274-3.951,6.52-6.026,9.7-.713,1.087-2.9,3.387-3.02,4.735a2.913,2.913,0,0,1-.635,1.954c-1.044,1.5-3.733.791-5.074.276a5.47,5.47,0,0,1-3.231-3.952,1.025,1.025,0,0,1,.762-1.277c.042-.028.077-.064.12-.1,2.293-1.538,3.987-4.777,5.539-7.007,1.157-1.651,2.357-3.267,3.493-4.932.621-.917,1.157-2.074,1.8-3.126a4.04,4.04,0,0,1-.988-1.249,5.7,5.7,0,0,1-2.745-1.644.977.977,0,0,1-.508-.162,66.927,66.927,0,0,0-10.76-4.961c-2.28-.924-4.686-1.425-6.915-2.42-.036.141-.078.275-.113.416a13.453,13.453,0,0,1,3.838,1.115c2.639,1.087,4.354,2.9,3.627,5.793a3.212,3.212,0,0,1-.847,3.98,3.491,3.491,0,0,1-1.333,2.731v.007a4.687,4.687,0,0,1-2.936,2.822,9.1,9.1,0,0,0,1.722,2.971,1.055,1.055,0,0,1-.691,1.792,1.183,1.183,0,0,1-.24.092c-4.594,1.2-9,3.027-13.612,4.156-4.8,1.171-9.78,1.418-14.677,2.075-4.2.564-8.643,1.227-12.722-.325-3.923-1.5-7.324-4-11.184-5.553a1.154,1.154,0,0,1-.43-.3.884.884,0,0,1-.664-1.234,37.984,37.984,0,0,0,2.653-10.811c.24-2.554,1.807-4.657,2.569-7.042.995-3.126.183-6.2.847-9.314.613-2.865,2.7-4.861,3.457-7.642a1.318,1.318,0,0,1,.205-.409c.141-.451.275-.882.395-1.3,1.644-5.793,1.722-11.763,2.5-17.7.585-4.431,1.707-8.933,5.179-12a53.961,53.961,0,0,1,11.953-8.065c2.611-1.228,5.483-2.074,6.788-4.9.706-1.538,1.242-3.133,1.9-4.678-2.526-3.19-5.186-6.718-5.01-11,.142-3.471,1.158-7.493,4.023-9.78,6.117-4.868,14.895-6.308,20.7-.515a17.415,17.415,0,0,1,5.307-1.185c3.1-.078,4.981,2.879,5.581,5.616.776,3.507-2.2,4.439-4.3,6.273l-.064.043A5.516,5.516,0,0,1,72,22.606a.777.777,0,0,1,.057.219c.628,4.015-.84,7.55-1.6,11.445-.416,2.138-1.235,5.391-3.952,5.617a9.03,9.03,0,0,1-1.566-.014.593.593,0,0,1-.106.028,33.42,33.42,0,0,0-3.874.5c4.58,1.94,8.242,4.8,9.011,10.161,1.115,7.734-4.015,14.811-3.422,22.544a.865.865,0,0,1-.494.9,1.067,1.067,0,0,1-.381.479,7.149,7.149,0,0,1-3.288,1.137,12.849,12.849,0,0,1-.515,2.5,95.071,95.071,0,0,0,9.977,8.39c2.568,1.849,5.271,4.227,8.362,5.13a6.361,6.361,0,0,1,2.808-1.672,2.483,2.483,0,0,1,1.185.07,42.661,42.661,0,0,1,1.256-6.894c.805-3.281,1.235-6.632,1.962-9.935,1.164-5.362,2.71-10.683,6.09-15.093C98.456,51.685,108.257,50.231,114.325,56.074Zm1.292,27.018a23.483,23.483,0,0,0,2.166-13.47c-.508-3.874-1.383-8.609-4.326-11.445a11.555,11.555,0,0,0-14.634-1.743c.113.367.261.734.409,1.093a10.363,10.363,0,0,1,10.2-.868c7.847,3.162,8.835,14.078,6.894,21.282a32.781,32.781,0,0,1-1.827,5.13c.014.035.035.063.049.1a10.694,10.694,0,0,0,.508,1.016C115.25,83.826,115.447,83.466,115.617,83.092Zm-1.327-5.716c1.32-5.87,1.4-17.174-6.2-18.924-4.022-.925-7.522-.346-10.281,2.977A25.384,25.384,0,0,0,93.093,71.1a43.462,43.462,0,0,0-1,12.5c.283,3.817,4.058,9.992,8.771,8.446A19.521,19.521,0,0,0,114.29,77.376Zm-.494,8.912c-.162-.317-.325-.628-.487-.938a16.93,16.93,0,0,1-4.064,4.728c-2.717,2.1-7.79,5.172-11.41,3.993C88.09,90.9,89.226,78.477,91.047,70.532c1.178-4.135,3.323-8.658,6.442-11.6-.127-.417-.289-.819-.451-1.228A16.759,16.759,0,0,0,92.613,63.6a58.111,58.111,0,0,0-3.888,14.02c-.049.276-.1.551-.162.826a1.152,1.152,0,0,1,.1.423c.12,3.994-.162,9.413,2.964,12.44,2.533,2.456,5.913,3.409,9.285,4.079a25.786,25.786,0,0,0,5.342-2.1A22.492,22.492,0,0,0,113.8,86.288Zm-17.175,10.2a18.8,18.8,0,0,1-3.57-1.524c0,.007.007.014.007.028a3.06,3.06,0,0,1-.212,2.455C94.053,97.113,95.323,96.8,96.621,96.492Zm-6.463,5.179c1.171-.459,1.976-.755,2.145-1.941a2.876,2.876,0,0,0-2.463-.409c-.543.191-.776.889-1.369,1.1a3.418,3.418,0,0,1-3.006-.656,1.9,1.9,0,0,1-.472.134c-.593,1.2-1.306,1.729-.586,3.21.67,1.383,1.595,1.158,2.731.381A16.042,16.042,0,0,1,90.158,101.671Zm.635-4.954c.854-.924-.452-2.462-.819-3.429-.19-.508-1.933.057-2.321.4a4.335,4.335,0,0,1,.056,3.289,6.955,6.955,0,0,1-.642,1.27.946.946,0,0,0,1.115-.388,2.683,2.683,0,0,1,1.722-.678c.212-.021.423-.028.635-.035A1.142,1.142,0,0,1,90.793,96.717ZM88.768,91.03A13.684,13.684,0,0,1,86.961,85.7a30.869,30.869,0,0,0-.7,5.828c.1.113.2.226.289.339A5.375,5.375,0,0,1,88.768,91.03Zm-3.3,5.836a2.985,2.985,0,0,0-.479-3.592c-.53-.614-1.228-1.581-2.124-1.009a6.658,6.658,0,0,0-.713.522A9.176,9.176,0,0,1,84.224,96.7c.077.283.345,1.15.437,1.094A2.224,2.224,0,0,0,85.465,96.866Zm-2.8,10.323c.289-.48.586-.953.875-1.433a10.145,10.145,0,0,1-1.333-2.377,3.887,3.887,0,0,1-.255-.678,10.657,10.657,0,0,0-1.637,2.47,4.644,4.644,0,0,0,2.16,1.947A.884.884,0,0,1,82.664,107.189Zm-1.122,1.834a5.86,5.86,0,0,1-2.342-1.891c-1.129,1.609-2.308,3.19-3.409,4.82-1.7,2.526-3.436,5.638-5.934,7.493A3.687,3.687,0,0,0,73.5,121.7c1.15-.091.833-1.15,1.016-1.8.374-1.369,1.75-2.547,2.5-3.69C78.557,113.836,80.06,111.437,81.542,109.023ZM79,93.5c-.183-.064-.36-.127-.536-.2-1.637.515-1.736,3.147-1.743,4.77A4.5,4.5,0,0,0,77.767,99.1,10.964,10.964,0,0,1,79,93.5Zm-4.347,3.6a7.679,7.679,0,0,1,1.63-4.841A59.123,59.123,0,0,1,69.773,87.6a110.247,110.247,0,0,1-8.694-7.317c-.268.628-.557,1.256-.861,1.9a37.487,37.487,0,0,0-2.392,8.107C61.192,92,65.193,92.872,68.7,94.262A48.517,48.517,0,0,1,74.655,97.1Zm-2-81.7c2.117-1.4,1.348-5.165-.649-6.315a17.519,17.519,0,0,1-3.648,3.683c.494.677.9,1.411,1.412,2.074.423.551,1.016.939,1.439,1.482C71.678,16,72.158,15.727,72.658,15.4ZM68.4,21.371c1.185,1.5,3.175-1.524,1.51-3.062a13.192,13.192,0,0,1-5.822-.332c-.007,0-.014.008-.021.008-4.057.162-7.875,1.749-11.918,2.06-.275,1.023,1.842.691,2.308.628.557-.078,1.093-.2,1.637-.325a11.346,11.346,0,0,1,2.766-.134.744.744,0,0,1,.74.741c-.028,2.555,5.7,1.715,6.739.819.282-.24.685-.734,1.129-.734A1.368,1.368,0,0,1,68.4,21.371Zm-4-4.84a11.789,11.789,0,0,0,4.565.423,7.548,7.548,0,0,1-.861-.839c-.529-.7-.917-1.489-1.467-2.167a23.637,23.637,0,0,1-11.17,3.338.978.978,0,0,1-.516-.113c-.592.593-1.171,1.193-1.728,1.785A40.077,40.077,0,0,1,64.064,16.5h.014A.722.722,0,0,1,64.4,16.531Zm3.521,37.553A14.308,14.308,0,0,0,66.1,46.259c-.945-1.595-3.027-2.47-4.622-3.289a1.037,1.037,0,0,0-.247.212,2.775,2.775,0,0,0-.395.572,6.179,6.179,0,0,0-.282.684,11.177,11.177,0,0,0-.423,3.013c-.029.967-.014,1.863-.029,2.618-.014,1.517-.2,2.47-.366,2.456s-.276-.925-.48-2.414c-.092-.748-.191-1.644-.219-2.66a9.959,9.959,0,0,1,.388-3.387,6.058,6.058,0,0,1,.374-.882,4.013,4.013,0,0,1,.536-.755c-.409-.176-.825-.353-1.263-.515a2.788,2.788,0,0,0-.183.593,19,19,0,0,1-.734,3.563A3.526,3.526,0,0,1,56.944,47.6c-.07.156-.134.311-.218.473a13.873,13.873,0,0,1-2.04,2.907,14.094,14.094,0,0,1-2.737,2.258,12.6,12.6,0,0,1-2.6,1.242c-1.588.529-2.569.529-2.611.4-.056-.176.924-.494,2.286-1.171a16.826,16.826,0,0,0,4.791-3.535,16.548,16.548,0,0,0,1.4-1.764,5.922,5.922,0,0,1-1.038.162c-.056.021-.106.042-.162.064a7.383,7.383,0,0,1-1.362.289c-.254.021-.515.049-.783.07-.268-.014-.543-.021-.826-.035a10.21,10.21,0,0,1-3.521-.981,15.344,15.344,0,0,1-5.01-4.092c-1.044-1.292-1.474-2.2-1.361-2.294.141-.112.839.643,1.982,1.722A20.363,20.363,0,0,0,48.039,46.9a10.761,10.761,0,0,0,1.9.7c-3.627-1.742-6.019-5.475-8.221-8.933a57.519,57.519,0,0,0-5.941,3.056c-.967.67-1.962,1.3-2.957,1.933a3.479,3.479,0,0,1,1.242.473A4.532,4.532,0,0,1,35.3,45.3l.24.339.2.36a5.805,5.805,0,0,1,.373.733,12.4,12.4,0,0,1,.861,3.035,20.549,20.549,0,0,1,.247,2.871,27.452,27.452,0,0,1-.353,4.813c-.437,2.716-1.107,4.3-1.248,4.248-.177-.05.2-1.68.416-4.347a36.706,36.706,0,0,0,.092-4.678,23.41,23.41,0,0,0-.3-2.71,12,12,0,0,0-.8-2.752,4.924,4.924,0,0,0-.325-.635l-.162-.3-.2-.282a3.179,3.179,0,0,0-.423-.48,2.7,2.7,0,0,0-.48-.388,2.927,2.927,0,0,0-2.272-.311c-.1.021-.19.05-.282.078-4.664,3.027-7.7,6.146-8.722,11.819-.79,4.332-.9,8.735-1.474,13.089,3.126-.31,8.425-.882,11.177,1.129-.092-.875-.141-1.764-.254-2.533s-.2-1.5-.339-2.145-.247-1.228-.353-1.736-.233-.931-.31-1.284c-.163-.706-.226-1.1-.163-1.122s.233.332.508,1.009c.134.339.311.755.473,1.256s.318,1.087.508,1.729.311,1.39.48,2.187.247,1.63.374,2.569c.042.352.056.719.071,1.086a3.96,3.96,0,0,1,.515,1.016c.063-.218.127-.437.19-.649.064-.346.127-.684.184-1.016.042-.353.084-.691.127-1.03a25.206,25.206,0,0,0,.084-3.585,22.124,22.124,0,0,0-.31-2.4c-.127-.578-.169-.91-.092-.938s.261.254.529.783A10.908,10.908,0,0,1,34.8,66.58a18.04,18.04,0,0,1,.176,3.776c-.021.225-.035.458-.056.691q.6-1.08,1.228-2.18a46.392,46.392,0,0,0,4.283-12.208l.113-.508.508.127a.626.626,0,0,0,.642-.155,2.468,2.468,0,0,0,.508-.79,8.452,8.452,0,0,0,.515-1.933,18.137,18.137,0,0,0,.2-3.345,12.278,12.278,0,0,0-.219-2.138c-.092-.48-.233-.706-.191-.741.022-.014.078.021.177.12a2.46,2.46,0,0,1,.3.529,8.409,8.409,0,0,1,.508,2.188,16.132,16.132,0,0,1,.035,3.492,9.278,9.278,0,0,1-.472,2.167,3.325,3.325,0,0,1-.7,1.143,1.637,1.637,0,0,1-.706.416,1.3,1.3,0,0,1-.324.056,42.1,42.1,0,0,1-4.121,12.151c-.5.875-1,1.729-1.475,2.576.628-.833,1.186-1.616,1.673-2.272,1.122-1.524,1.933-2.378,2.053-2.279s-.437,1.086-1.383,2.723c-.473.812-1.051,1.785-1.778,2.844a16.07,16.07,0,0,1-2.78,3.147c-.12.522-.254,1.037-.395,1.552l.691-.367a24.738,24.738,0,0,0,4.3-2.787c.311-.247.614-.487.911-.727.282-.247.564-.487.832-.712.551-.459,1.03-.918,1.489-1.32,1.792-1.63,2.928-2.653,3.055-2.533.106.113-.8,1.32-2.462,3.133-.431.452-.882.945-1.412,1.446-.268.247-.536.509-.818.777s-.593.515-.9.79a22.31,22.31,0,0,1-4.453,3c-.218.113-.437.226-.649.339a3.087,3.087,0,0,0-.578.352l-.233.17-.212.218a1.279,1.279,0,0,0-.183.212c-.219.628-.466,1.249-.734,1.863.1.092.2.176.3.268a6.61,6.61,0,0,0,1.56-.24,18.789,18.789,0,0,0,2.279-.825c1.263-.544,2.025-.854,2.081-.741.05.1-.578.6-1.785,1.326a13.961,13.961,0,0,1-2.307,1.1,7.085,7.085,0,0,1-.847.24c2.568,2.357,4.742,4.833,7.853,6.661a8.5,8.5,0,0,0,1.165-1.39c.515-.734,1.058-1.51,1.616-2.307.9-1.256,1.721-2.463,2.455-3.564q.53-.836,1-1.587c.289-.509.565-.981.812-1.412.43-.868.811-1.587,1.03-2.124.233-.515.4-.79.48-.769s.063.346-.043.91a12.033,12.033,0,0,1-.7,2.343c-.2.473-.452.981-.706,1.531-.275.537-.6,1.094-.931,1.694-.7,1.157-1.51,2.4-2.414,3.662-.571.8-1.1,1.559-1.658,2.307a8.876,8.876,0,0,1-1.115,1.27c3.338,1.884,6.746,4.03,10.514,4.827.042-.035.106-.078.155-.113.741-.5,1.785-1.094,2.491-1.482a69.925,69.925,0,0,1,2.434-9.893c.791-2.109,1.892-3.986,2.477-6.082-.028-.332-.049-.713-.07-1.136-.078-1.679-.036-3.973-.106-6.471a35.829,35.829,0,0,0-.8-6.3c-.423-1.566-.677-2.575-.522-2.646s.678.833,1.334,2.406a22.022,22.022,0,0,1,1.178,6.421c.028-.733-.042-1.552-.056-2.356-.1-3.345-.515-6.393-.685-8.609-.19-2.223-.225-3.606-.063-3.627s.494,1.327.9,3.514a58.818,58.818,0,0,1,1.044,8.679c.014.868.085,1.68.028,2.534-.056.8-.1,1.566-.176,2.3-.085.593-.169,1.157-.254,1.7.057-.007.113-.021.169-.028a5.838,5.838,0,0,0,2.569-.8C64.05,66.228,67.578,60.505,67.917,54.084ZM57.255,15.014a19.894,19.894,0,0,0,12.1-5.977A50.014,50.014,0,0,0,63.7,10.766,24.254,24.254,0,0,0,57.255,15.014ZM62.589,99.4c.72-2.456-1.531-3.324-3.493-3.987-2.321-.783-3.521-.282-5.454,1.016a8.853,8.853,0,0,0-.727.727c-2.11,1.461-2.286,6.47-1.75,8.686a.042.042,0,0,0,.007.028c.339.029.685.05,1.031.05a1.071,1.071,0,0,1,.656.2,1.1,1.1,0,0,1,.444.219c1.644,1.334,6.1,2.053,7.127-.388a3.233,3.233,0,0,1-1.256-.31,5.357,5.357,0,0,1-.8-.445c-.184-.127-.275-.233-.254-.31s.148-.127.374-.142a6.453,6.453,0,0,1,.917.085,3.347,3.347,0,0,0,1.122.042,1.145,1.145,0,0,0,.466-.247,1.6,1.6,0,0,0,.3-.409.821.821,0,0,0,.049-.423c-.014-.028-.028-.064-.042-.1l-.007-.021.014-.007-.028-.028-.12-.149c-.042-.056-.056-.035-.085-.063a.406.406,0,0,1-.063-.057.909.909,0,0,0-.12-.07,1.76,1.76,0,0,0-.254-.134c-.177-.085-.36-.162-.529-.226-.692-.254-1.165-.473-1.122-.642.042-.148.5-.233,1.3-.176a4.511,4.511,0,0,1,.67.1,3.694,3.694,0,0,1,.381.127c.071.029.127.05.2.085l.176.113a2.294,2.294,0,0,0,.5-.367,1.034,1.034,0,0,0,.318-.706.861.861,0,0,0-.1-.374.272.272,0,0,1-.042-.077l-.12-.155-.2-.177a8.041,8.041,0,0,0-2.124-1.15c-.557-.233-1.037-.339-1.03-.508-.092-.311,1.764-.713,3.62.536C62.568,99.519,62.575,99.462,62.589,99.4ZM59.915,10.357A32.952,32.952,0,0,1,63.1,8.663a10.273,10.273,0,0,0-8.6-2.441,18.567,18.567,0,0,0-4.77,1.221c.233.035.466.063.7.091s.5.127.741.191a4.42,4.42,0,0,1,.678.233c.211.091.423.162.614.268A16.331,16.331,0,0,1,54.4,9.348c1.044.705,1.658,1.171,1.595,1.326s-.847-.07-2-.585c-.572-.254-1.242-.565-1.983-.861-.183-.078-.374-.127-.564-.2a4,4,0,0,0-.586-.176,5.6,5.6,0,0,0-.6-.141c-.226-.029-.466-.057-.7-.092a6.5,6.5,0,0,0-1.214.078,5.661,5.661,0,0,0-1.122.289c-.3.127-.564.268-.833.416a9.057,9.057,0,0,0-1.079,1.066c-4.34,5.228-2.7,10.937.734,15.813a.266.266,0,0,0-.007-.078c-.007-.254.014-.494.028-.741-.007-.028-.021-.056-.028-.092-.015-.127-.036-.261-.057-.395s0-.247-.007-.381a5.085,5.085,0,0,1,.078-.875,4.089,4.089,0,0,1,.889-1.9,2.779,2.779,0,0,1,1.933-1,1.024,1.024,0,0,1,.275-.586C52.308,16.785,55.9,12.826,59.915,10.357Zm-3.309,33.1c.4-3.013,1.6-4.163,3.478-4.777a43.012,43.012,0,0,1-4.071-1.764c-3.055-1.482-4.664-3.189-5.539-6.47-.007-.036-.007-.064-.014-.092-.226-.12-.459-.247-.72-.367-.459-.212-.889-.409-1.27-.586-.085-.028-.169-.056-.247-.084a4.524,4.524,0,0,1-.416-.2C46.522,31.8,45.88,35.5,43.5,37.53a30.85,30.85,0,0,0,4.594,6.231C50.488,46.019,55.935,48.5,56.606,43.457ZM48.95,105.5c-.438-2.794-.057-6.661,1.693-8.982a35.953,35.953,0,0,1-7.733-3.571,16.8,16.8,0,0,0-2.491,3.331,12.15,12.15,0,0,0-.918,4.9C42.479,102.786,45.591,104.684,48.95,105.5Zm-7.889-13.59c-.282-.155-.565-.31-.84-.465-4.135-2.23-6.611-5.6-10.168-8.538a.489.489,0,0,1-.1-.1,1.284,1.284,0,0,1-.239-.2,9.465,9.465,0,0,1-1.059-.663c-1.4-1.044-2.343-2.117-2.152-2.378s1.482.395,2.851,1.418c.091.064.176.127.268.191a28.445,28.445,0,0,0,1.884-5.751,1,1,0,0,1,0-.2c.367-5.1-7.811-3.605-10.937-3.3a1.144,1.144,0,0,1-.219,0c-.416,2.032-1.108,4.1-1.708,6.167a.894.894,0,0,1,.043.212.436.436,0,0,1,.035-.085c.466-.684.826-1.03.967-.945s.042.585-.191,1.277a9.421,9.421,0,0,0-.275,2.745c.092,1.093.3,2.124.381,2.9s.063,1.27-.092,1.312-.423-.381-.719-1.108a10.586,10.586,0,0,1-.763-3.02,5.447,5.447,0,0,1,.043-1.136,18.017,18.017,0,0,0-.551,4.34c.05,4.77,5.116,7.289,8.821,9.3s7.352,4.163,11.071,6.167a14.34,14.34,0,0,1,.84-4.05C38.881,94.3,40.017,93.3,41.061,91.912Z"/><path d="M111.771,69.636c.127.113-.635,1.242-1.94,3s-3.133,4.177-5.279,6.767a57.251,57.251,0,0,1-5.969,6.23c-1.679,1.426-2.83,2.166-2.928,2.054-.12-.135.846-1.108,2.363-2.675,1.489-1.573,3.486-3.824,5.624-6.371,2.124-2.569,4.065-4.905,5.532-6.542S111.644,69.53,111.771,69.636Z"/><path d="M111.651,77.694c.233.226-2.477,3.316-6.054,6.894A42.568,42.568,0,0,1,100.9,89.1c-1.368,1.051-2.342,1.411-2.427,1.291-.1-.148.741-.783,1.87-1.926,1.171-1.143,2.646-2.837,4.4-4.714C108.32,80.178,111.418,77.461,111.651,77.694Z"/><path d="M111.3,64.7c.043.071-.219.332-.691.763a26.481,26.481,0,0,0-1.842,1.989c-.741.875-1.581,1.976-2.6,3.169-.988,1.178-2.095,2.462-3.267,3.8-2.349,2.653-4.473,5.08-6.061,6.788s-2.639,2.709-2.766,2.6.7-1.3,2.124-3.154,3.443-4.354,5.814-7.028c1.179-1.341,2.308-2.6,3.352-3.747,1.03-1.115,1.94-2.167,2.787-3a12.84,12.84,0,0,1,2.18-1.785C110.91,64.753,111.256,64.626,111.3,64.7Z"/><path d="M110.825,81.631c.233.247-.938,1.828-2.568,3.677-1.694,1.912-3.394,2.956-3.606,2.73-.24-.254,1.15-1.75,2.724-3.528C108.991,82.669,110.607,81.4,110.825,81.631Z"/><path d="M107.361,62.4c.056.057-.092.339-.4.783-.156.226-.353.494-.579.8s-.473.677-.755,1.072c-.564.769-1.235,1.779-2.039,2.78-.2.255-.409.509-.621.77-.12.141-.2.247-.346.416l-.36.381c-.48.522-.988,1.051-1.517,1.581-2.117,2.1-3.987,3.986-5.186,5.475-.289.374-.558.713-.783,1.009-.247.289-.41.6-.572.819-.317.444-.529.677-.6.642s-.007-.346.184-.861a6.954,6.954,0,0,1,.4-.917c.19-.346.423-.748.684-1.179A38.716,38.716,0,0,1,99.9,70.144c.523-.529,1.024-1.044,1.517-1.538l.36-.367c.085-.092.219-.254.325-.367.226-.254.437-.5.656-.748.854-.967,1.538-1.856,2.216-2.59.331-.367.614-.705.9-.981s.543-.5.755-.677C107.043,62.516,107.3,62.347,107.361,62.4Z"/><path d="M103.833,60.7c.275.232-1.743,2.723-4.015,5.814-2.315,3.154-4.65,5.4-4.869,5.186-.254-.247,1.609-2.752,3.916-5.9C101.229,62.594,103.607,60.505,103.833,60.7Z"/><path d="M56.733,64.753c.162.035.127,1.016-.014,2.583s-.353,3.739-.784,6.131a23.821,23.821,0,0,1-1.884,5.991c-.748,1.411-1.362,2.18-1.5,2.117-.162-.078.2-1.009.734-2.477a46.029,46.029,0,0,0,1.475-5.849c.416-2.343.769-4.495,1.122-6.041S56.57,64.725,56.733,64.753Z"/><path d="M56.14,52.172c.12.113-.289.79-1.03,1.785-.374.494-.833,1.073-1.355,1.7-.522.613-1.037,1.375-1.637,2.116-.579.748-1.186,1.468-1.665,2.075-.48.663-.9,1.263-1.263,1.764-.2.261-.4.494-.565.691a3.455,3.455,0,0,1-.48.431c-.282.219-.465.31-.529.254s.007-.247.184-.565c.077-.155.218-.331.317-.55s.226-.459.367-.713c.275-.543.607-1.213,1.073-1.954.493-.72,1.037-1.4,1.622-2.166.6-.748,1.136-1.475,1.722-2.075s1.115-1.136,1.581-1.566C55.4,52.532,56.027,52.059,56.14,52.172Z"/><path d="M51.1,27.08c.028.07-.043.2-.226.36a1.609,1.609,0,0,1-1.171.176,2.421,2.421,0,0,1-1.4-1.009,2.483,2.483,0,0,1-.346-2.145,2.083,2.083,0,0,1,.275-.55,2.844,2.844,0,0,1,.3-.395,3.037,3.037,0,0,1,.367-.381,1.485,1.485,0,0,1,.29-.191,1.046,1.046,0,0,1,.247-.085.758.758,0,0,1,.811.395,1.646,1.646,0,0,1,.113.3,2.886,2.886,0,0,1,.077.423c.029.261.036.473.043.671a5.03,5.03,0,0,0,.1.839c.042.177.113.275.084.36-.014.071-.218.113-.451-.085a2.083,2.083,0,0,1-.551-.952c-.07-.191-.127-.4-.183-.607-.014.014-.021.028-.035.042a3.205,3.205,0,0,0-.226.325.9.9,0,0,0-.12.268,1.564,1.564,0,0,0,.141,1.2,2,2,0,0,0,.741.783,1.983,1.983,0,0,0,.713.2C50.918,27,51.067,27,51.1,27.08Z"/><path d="M38.415,107.93c1.517.727,2.441,1.242,2.378,1.4s-1.087-.085-2.7-.621a28.186,28.186,0,0,1-6.047-2.879A17.122,17.122,0,0,1,27.287,101c-.832-1.482-1.206-2.47-1.072-2.555s.783.762,1.785,2.1a23.2,23.2,0,0,0,4.706,4.29A56.167,56.167,0,0,0,38.415,107.93Z"/></g><text x="0" y="143" fill="#000000" font-size="5px" font-weight="bold" font-family="'Helvetica Neue', Helvetica, Arial-Unicode, Arial, Sans-serif">Created by Hey Rabbit</text><text x="0" y="148" fill="#000000" font-size="5px" font-weight="bold" font-family="'Helvetica Neue', Helvetica, Arial-Unicode, Arial, Sans-serif">from the Noun Project</text></svg>