<svg xmlns="http://www.w3.org/2000/svg" xmlns:xlink="http://www.w3.org/1999/xlink" version="1.1" x="0px" y="0px" viewBox="0 0 100 125" enable-background="new 0 0 100 100" xml:space="preserve"><path d="M81.865,5.8h-63.73c-0.829,0-1.5,0.671-1.5,1.5V92.7c0,0.829,0.671,1.5,1.5,1.5h63.73c0.829,0,1.5-0.671,1.5-1.5V7.3  C83.365,6.472,82.694,5.8,81.865,5.8z M80.365,49.606h-8.357V8.8h8.357V49.606z M29.848,49.606V29.044h19.224v20.562H29.848z   M49.072,51.106v20.917H29.848V51.106H49.072z M70.508,73.523V91.2h-40.66V73.523H70.508z M70.508,51.106v20.917H50.572V51.106  H70.508z M50.572,49.606V29.044h19.936v20.562H50.572z M29.848,27.544V8.8h40.66v18.744H29.848z M28.348,8.8v40.806h-8.713V8.8  H28.348z M19.635,51.106h8.713V91.2h-8.713V51.106z M72.008,91.2V51.106h8.357V91.2H72.008z"/><text x="0" y="115" fill="#000000" font-size="5px" font-weight="bold" font-family="'Helvetica Neue', Helvetica, Arial-Unicode, Arial, Sans-serif">Created by H Alberto Gongora</text><text x="0" y="120" fill="#000000" font-size="5px" font-weight="bold" font-family="'Helvetica Neue', Helvetica, Arial-Unicode, Arial, Sans-serif">from the Noun Project</text></svg>