<svg xmlns="http://www.w3.org/2000/svg" data-name="Layer 1" viewBox="0 0 200 250" x="0px" y="0px"><path d="M84.53,81.3a23.56,23.56,0,0,1-6.28,23.18,24.3,24.3,0,0,1-23.68,5.78A59.4,59.4,0,0,1,13.92,69.61,24.27,24.27,0,0,1,19.7,45.92a23.53,23.53,0,0,1,23.17-6.27A59.35,59.35,0,0,1,84.53,81.3Zm9.88,39.06h0a3.76,3.76,0,0,1-4.25.76A86.56,86.56,0,0,0,72.22,115a.47.47,0,0,1-.08-.89,28.79,28.79,0,0,0,9.62-6.37h0a28.79,28.79,0,0,0,6.37-9.62.47.47,0,0,1,.89.08,86.56,86.56,0,0,0,6.15,17.94,3.76,3.76,0,0,1-.76,4.25ZM44.12,35.06h0A28.23,28.23,0,0,0,16.91,42a29.27,29.27,0,0,0-7.4,29.48,64.08,64.08,0,0,0,44.6,43.6,30.34,30.34,0,0,0,3.93.78h.07l.22,0c.67.08,1.34.13,2,.16a83.88,83.88,0,0,1,32.81,9.79l46.35,46.35a4.77,4.77,0,0,0,6.74,0h0a4.76,4.76,0,0,0,0-6.73L99.88,119.1a83.88,83.88,0,0,1-9.79-32.81c0-.67-.08-1.34-.16-2a1.49,1.49,0,0,1,0-.21s0,0,0,0a29.3,29.3,0,0,0-.78-4,64.09,64.09,0,0,0-45-45Z"/><path d="M66.05,58.45l-7.64,7.63-7.62-7.62,7.63-7.63,7.63,7.62Zm8.63,8.64-7.63,7.63-7.63-7.63,7.64-7.63,7.62,7.63ZM40.13,49.82,32.5,57.44l-7.62-7.62,7.62-7.63,7.63,7.63Zm8.64,8.64-7.63,7.62-7.63-7.63,7.63-7.62,7.63,7.63Zm8.64,8.63-7.63,7.63-7.63-7.63,7.63-7.62,7.63,7.62ZM66,75.73l-7.63,7.62-7.62-7.62,7.62-7.63L66,75.73Zm8.64,8.64L67.06,92l-7.64-7.64,7.63-7.62,7.63,7.63ZM31.49,58.45l-7.62,7.63-7.63-7.63,7.63-7.62,7.62,7.62Zm8.64,8.64-7.62,7.63-7.63-7.63,7.62-7.63,7.63,7.63Zm8.64,8.64-7.63,7.62-7.62-7.62,7.62-7.63,7.63,7.63Zm8.64,8.63L49.78,92l-7.63-7.63,7.63-7.62,7.63,7.62ZM66.05,93l-7.63,7.62L50.79,93l7.62-7.63L66.05,93ZM40.13,84.36,32.5,92l-7.62-7.63,7.63-7.63,7.62,7.62ZM48.77,93l-7.63,7.63L33.51,93l7.63-7.64L48.77,93ZM67.06,57.44l-7.37-7.37-1.28-.86-1.29-.82c-.44-.28-.89-.53-1.33-.79s-.89-.51-1.35-.75l3,3-7.63,7.63-7.63-7.63,5.93-5.93c-.49-.21-1-.39-1.47-.56l-5.47,5.48-7.43-7.43-.62.08-.61.12a6.6,6.6,0,0,0-.77.17l-.55.14a5.08,5.08,0,0,0-.52.15l-6.77,6.77L22,47c-.18.16-.34.33-.51.5l-.13.12L21,48l1.84,1.84-6.64,6.63c-.11.4-.22.8-.32,1.22,0,.16-.07.32-.1.47-.12.53-.21,1.07-.28,1.61l7.34,7.34-5.49,5.48L17.92,74l5.95-5.94,7.63,7.63-7.63,7.63-3-3c.16.31.34.62.52.92s.41.76.64,1.12.43.72.66,1.07.46.74.7,1.1.47.7.72,1.05L31.49,93l-.65.65c.34.34.68.67,1,1L32.5,94l6,6,.83.56a1.07,1.07,0,0,0,.22.15c.36.25.73.48,1.09.71l1.07.65,0,0,.66.38c.44.26.89.51,1.34.76l-1.63-1.64L49.78,94l7.63,7.63L52.08,107c.51.18,1,.35,1.52.51l4.82-4.83,6,6a17,17,0,0,0,1.71-.3l-6.71-6.71L67.06,94l7.62,7.62-6,6,.1,0c.31-.1.6-.21.9-.33l.09,0,.56-.24.43-.19c.28-.12.55-.27.83-.41l.09,0,.68-.38,3.34-3.34.51.51.38-.37.13-.13.5-.51-.51-.51,3.45-3.45c.15-.24.28-.48.4-.72l.26-.5c.1-.19.19-.4.29-.61s.27-.62.39-.94a7.83,7.83,0,0,0,.32-.85,1,1,0,0,0,0-.1l-6.16,6.16L68.07,93l7.62-7.63,6.8,6.8c.06-.29.13-.57.17-.86a8.51,8.51,0,0,0,.13-.86L76.7,84.37l4.82-4.82c-.15-.49-.31-1-.48-1.45,0,0,0,0,0-.06l-5.33,5.32-7.63-7.63,7.63-7.63,1.64,1.63-.06-.11c-.16-.31-.33-.62-.51-.92l-.19-.31-.18-.34-.6-1L75,65.77l-.87-1.28-6-6,.63-.63c-.32-.35-.65-.69-1-1l-.65.65Z"/><path d="M130.77,54.94a59.33,59.33,0,0,1,26.36-15.29,23.53,23.53,0,0,1,23.17,6.27,24.27,24.27,0,0,1,5.78,23.69,59.4,59.4,0,0,1-40.65,40.65,24.3,24.3,0,0,1-23.68-5.78,23.54,23.54,0,0,1-6.27-23.18,59.2,59.2,0,0,1,15.29-26.36Zm-25.94,61.17A86.56,86.56,0,0,0,111,98.17a.47.47,0,0,1,.89-.08,28.79,28.79,0,0,0,6.37,9.62h0a28.69,28.69,0,0,0,9.62,6.37.47.47,0,0,1-.08.89,86.56,86.56,0,0,0-17.94,6.15,3.76,3.76,0,0,1-4.25-.76h0a3.76,3.76,0,0,1-.76-4.25ZM127.4,51.58a64.07,64.07,0,0,0-16.52,28.48,29.3,29.3,0,0,0-.78,4s0,0,0,0a1.49,1.49,0,0,1,0,.21c-.08.68-.13,1.35-.16,2a83.88,83.88,0,0,1-9.79,32.81L53.76,165.45a4.77,4.77,0,0,0,0,6.73h0a4.76,4.76,0,0,0,6.73,0l46.36-46.35A83.88,83.88,0,0,1,139.66,116c.67,0,1.34-.08,2-.16l.22,0H142a30.34,30.34,0,0,0,3.93-.78,64.08,64.08,0,0,0,44.6-43.6A29.27,29.27,0,0,0,183.09,42a28.23,28.23,0,0,0-27.21-6.93h0A64,64,0,0,0,127.4,51.58Z"/><path d="M141.58,50.83l7.63,7.63-7.63,7.62L134,58.45l7.63-7.62Zm-8.64,8.63,7.64,7.63L133,74.72l-7.63-7.63,7.62-7.63ZM167.5,42.19l7.62,7.63-7.62,7.62-7.63-7.62,7.63-7.63Zm-8.64,8.64,7.63,7.62-7.63,7.63-7.63-7.62,7.63-7.63Zm-8.64,8.64,7.63,7.62-7.63,7.63-7.63-7.63,7.63-7.62Zm-8.64,8.63,7.63,7.63-7.63,7.62L134,75.73l7.62-7.63ZM133,76.74l7.63,7.62L132.94,92l-7.62-7.63L133,76.74Zm43.18-25.91,7.63,7.62-7.63,7.63-7.62-7.63,7.62-7.62Zm-8.63,8.63,7.62,7.63-7.63,7.63-7.62-7.63,7.63-7.63Zm-8.64,8.64,7.62,7.63-7.62,7.62-7.63-7.62,7.63-7.63Zm-8.64,8.64,7.63,7.62L150.22,92l-7.63-7.63,7.63-7.62Zm-8.64,8.63L149.21,93l-7.63,7.63L134,93l7.63-7.64Zm25.91-8.63,7.63,7.63L167.5,92l-7.63-7.64,7.62-7.62Zm-8.63,8.63L166.49,93l-7.63,7.62L151.23,93l7.63-7.63ZM132.29,56.79c-.34.34-.67.68-1,1l.63.63-6,6L125,65.77l-.82,1.29-.6,1-.18.34-.19.31c-.18.3-.35.61-.51.92l-.06.11,1.64-1.63,7.63,7.63-7.63,7.63L119,78s0,0,0,.06c-.17.48-.33,1-.48,1.45l4.82,4.82-6.09,6.09a8.51,8.51,0,0,0,.13.86c0,.29.11.57.17.86l6.8-6.8L131.93,93l-7.62,7.62-6.16-6.16a1,1,0,0,0,0,.1,7.83,7.83,0,0,0,.32.85c.12.32.25.63.39.94s.19.42.29.61l.26.5q.18.36.39.72l3.46,3.45-.51.51.5.51.13.13.38.37.51-.51,3.34,3.34.68.38.09,0c.28.14.55.29.83.41l.43.19.56.24s.07,0,.09,0c.3.12.59.23.9.33l.1,0-6-6L132.94,94l7.63,7.62-6.71,6.71a17,17,0,0,0,1.71.3l6-6,4.82,4.83c.52-.16,1-.33,1.52-.51l-5.33-5.33L150.22,94l7.63,7.63-1.63,1.64c.45-.25.9-.5,1.34-.76l.66-.38,0,0,1.07-.65c.36-.23.73-.46,1.09-.71a1.07,1.07,0,0,0,.22-.15l.83-.56,6-6,.63.63c.35-.32.69-.65,1-1l-.65-.65,7.35-7.36q.38-.53.72-1.05c.24-.36.48-.73.7-1.1s.44-.7.66-1.07.44-.74.64-1.12.36-.61.52-.92l-3,3-7.63-7.63,7.63-7.63,6,5.94.55-1.47-5.49-5.48,7.34-7.34c-.07-.54-.16-1.08-.28-1.61,0-.15-.06-.31-.1-.47-.1-.42-.21-.82-.32-1.22l-6.64-6.63L179,48l-.37-.39-.13-.12c-.17-.17-.33-.34-.51-.5l-1.84,1.84L169.36,42a5.08,5.08,0,0,0-.52-.15l-.55-.14a6.6,6.6,0,0,0-.77-.17l-.61-.12-.62-.08-7.43,7.43-5.47-5.48c-.49.17-1,.35-1.47.56l5.93,5.93-7.63,7.63-7.63-7.63,3-3c-.46.24-.91.5-1.35.75s-.89.51-1.33.79l-1.29.82-1.28.86-7.37,7.37-.65-.65Z"/><path d="M93.77,41.38a28.21,28.21,0,0,1-2.67,12,15,15,0,0,1,0-24.06,28.21,28.21,0,0,1,2.67,12Z"/><path d="M103.74,41.38a30.93,30.93,0,0,0,3,13.35A14.83,14.83,0,0,1,100,56.34a15,15,0,0,1-6.75-1.6,31.13,31.13,0,0,0,0-26.71A14.86,14.86,0,0,1,100,26.42,14.71,14.71,0,0,1,106.75,28a30.92,30.92,0,0,0-3,13.34Z"/><path d="M115,41.38a14.91,14.91,0,0,1-6.07,12,28.53,28.53,0,0,1,0-24.06,14.94,14.94,0,0,1,6.07,12Z"/><text x="0" y="215" fill="#000000" font-size="5px" font-weight="bold" font-family="'Helvetica Neue', Helvetica, Arial-Unicode, Arial, Sans-serif">Created by Marcel Boer</text><text x="0" y="220" fill="#000000" font-size="5px" font-weight="bold" font-family="'Helvetica Neue', Helvetica, Arial-Unicode, Arial, Sans-serif">from the Noun Project</text></svg>